
<svg xmlns="http://www.w3.org/2000/svg" version="1.1" xmlns:xlink="http://www.w3.org/1999/xlink" preserveAspectRatio="none" x="0px" y="0px" width="1440px" height="900px" viewBox="0 0 1440 900">
<defs>
<g id="Layer3_0_FILL">
<path fill="#FFFFFF" stroke="none" d="
M 101.4 -15.25
Q 101.4 -32.2 89.4 -44.2 77.35 -56.25 60.4 -56.25
L -60.4 -56.25
Q -77.4 -56.25 -89.4 -44.2 -101.4 -32.2 -101.4 -15.25
L -101.4 14.7
Q -101.4 31.7 -89.4 43.7 -77.4 55.7 -60.4 55.7
L 60.4 55.7
Q 77.35 55.7 89.4 43.7 101.4 31.7 101.4 14.7
L 101.4 -15.25 Z"/>
</g>

<g id="Mask_2_MASK_0_FILL">
<path fill="#FFFFFF" stroke="none" d="
M 101.4 -15.25
Q 101.4 -32.2 89.4 -44.2 77.35 -56.25 60.4 -56.25
L -60.4 -56.25
Q -77.4 -56.25 -89.4 -44.2 -101.4 -32.2 -101.4 -15.25
L -101.4 14.7
Q -101.4 31.7 -89.4 43.7 -77.4 55.7 -60.4 55.7
L 60.4 55.7
Q 77.35 55.7 89.4 43.7 101.4 31.7 101.4 14.7
L 101.4 -15.25 Z"/>
</g>

<g id="Layer2_0_MEMBER_0_FILL">
<path fill="#000000" stroke="none" d="
M 147.25 18.25
Q 129 0 103.25 0 77.45 0 59.25 18.25 41 36.5 41 62.3 41 88.05 59.25 106.3 77.45 124.5 103.25 124.5 129 124.5 147.25 106.3 165.5 88.05 165.5 62.3 165.5 36.5 147.25 18.25 Z"/>
</g>

<g id="Layer2_0_MEMBER_1_FILL">
<path fill="#FFFFFF" stroke="none" d="
M 109.55 34.75
Q 103.1 28.3 94.05 28.3 84.95 28.3 78.5 34.75 72.1 41.15 72.1 50.25 72.1 59.35 78.5 65.75 84.95 72.2 94.05 72.2 103.1 72.2 109.55 65.75 115.95 59.35 115.95 50.25 115.95 41.15 109.55 34.75 Z"/>
</g>

<g id="Layer2_0_MEMBER_2_FILL">
<path fill="#FFFFFF" stroke="none" d="
M 138.75 21.1
Q 136.05 18.4 132.25 18.4 128.45 18.4 125.75 21.1 123.05 23.8 123.05 27.6 123.05 31.45 125.75 34.1 128.45 36.8 132.25 36.8 136.05 36.8 138.75 34.1 141.45 31.4 141.45 27.6 141.45 23.8 138.75 21.1 Z"/>
</g>

<g id="eyelid_0_Layer0_0_FILL">
<path fill="#B6BCB6" stroke="none" d="
M 85.6 -19.8
Q 50.15 -28 0 -28 -50.15 -28 -85.6 -19.8 -121.05 -11.6 -121.05 0 -121.05 11.6 -85.6 19.8 -50.15 28 0 28 50.15 28 85.6 19.8 121.05 11.6 121.05 0 121.05 -11.6 85.6 -19.8 Z"/>
</g>

<path id="eyelid_0_Layer0_0_1_STROKES" stroke="#666666" stroke-width="2" stroke-linejoin="round" stroke-linecap="round" fill="none" d="
M 121.05 0
Q 121.05 11.6 85.6 19.8 50.15 28 0 28 -50.15 28 -85.6 19.8 -121.05 11.6 -121.05 0 -121.05 -11.6 -85.6 -19.8 -50.15 -28 0 -28 50.15 -28 85.6 -19.8 121.05 -11.6 121.05 0 Z"/>
</defs>

<g transform="matrix( 1, 0, 0, 1, 432.6,404.6) ">
<g transform="matrix( 1, 0, 0, 1, 0,0) ">
<use xlink:href="#Layer3_0_FILL"/>
</g>

<mask id="Mask_Mask_1">
<g transform="matrix( 1, 0, 0, 1, 0,0) ">
<use xlink:href="#Mask_2_MASK_0_FILL"/>
</g>
</mask>

<g mask="url(#Mask_Mask_1)">
<g transform="matrix( 1, 0, 0, 1, -101.4,-62.25) ">
<use xlink:href="#Layer2_0_MEMBER_0_FILL"/>
</g>

<g transform="matrix( 1, 0, 0, 1, -101.4,-62.25) ">
<use xlink:href="#Layer2_0_MEMBER_1_FILL"/>
</g>

<g transform="matrix( 1, 0, 0, 1, -101.4,-62.25) ">
<use xlink:href="#Layer2_0_MEMBER_2_FILL"/>
</g>
</g>

<g mask="url(#Mask_Mask_1)">
<g transform="matrix( 1, 0, 0, 1, 3.05,-92) ">
<g transform="matrix( 1, 0, 0, 1, 0,0) ">
<use xlink:href="#eyelid_0_Layer0_0_FILL"/>

<use xlink:href="#eyelid_0_Layer0_0_1_STROKES"/>
</g>
</g>
</g>
</g>
</svg>
